# xmcd
#
# Track frame offsets:
#	150
#	67755
#	90555
#	116790
#
# Disc length: 1885 seconds
#
# Revision: 1
# Processed by: cddbd v1.5.1PL2 Copyright (c) Steve Scherf et al.
# Submitted via: EasyCDDAExtractor 9.0.0.1
#
DISCID=2a075b04
DTITLE=Dio - P.N.E. Coliseum Vancouver 28-12-85 Disc 2
DYEAR=1985
DGENRE=Hard Rock
TTITLE0=Rock and Roll Children - Long Live Rock and Roll - Man On The Silver Mount
TTITLE0=ain - Rock and Roll Children Reprise
TTITLE1=Stand Up And Shout
TTITLE2=Rainbow In The Dark
TTITLE3=We Rock
EXTD=
EXTT0=
EXTT1=
EXTT2=
EXTT3=
PLAYORDER=
